<svg width="46" height="30" viewBox="0 0 46 30" fill="none" xmlns="http://www.w3.org/2000/svg">
<path d="M12.1105 11.3347C12.1105 13.3815 10.9333 14.3931 9.56672 15.5645C9.06388 15.9904 8.54329 16.44 8.07595 16.9606V9.72558H6.46094V29.082H8.07595V21.0188C8.07595 18.9719 9.25319 17.9603 10.6138 16.7949C11.1107 16.369 11.6372 15.9194 12.1046 15.3988V22.6338H13.7196V0.0473633H12.1046V11.3347H12.1105Z" fill="#CCA279"/>
<path d="M29.853 12.9497H26.6289V14.5647H29.853V12.9497Z" fill="#CCA279"/>
<path d="M20.5389 1.65646H20.6158L22.7218 4.88056L24.0706 3.99319L21.4854 0.0473633H19.6692L17.0781 3.99319L18.4269 4.88056L20.5389 1.65646Z" fill="#CCA279"/>
<path d="M8.8855 3.06437C8.8855 1.23048 7.66093 0 5.83887 0C4.60248 0 3.13536 0.638904 2.01728 1.66825C0.79863 2.79225 0.0887367 4.22978 0 5.75014V22.6219H1.60318V8.64887C2.00545 8.82043 2.46688 8.91508 2.98747 8.91508C5.58449 8.91508 8.87958 6.15833 8.87958 3.06437M1.60909 6.06959C1.60909 3.30692 4.3481 1.61501 5.84479 1.61501C7.0871 1.61501 7.27641 2.52604 7.27641 3.07029C7.27641 4.88052 5.16447 7.30599 2.9993 7.30599C2.05277 7.30599 1.61501 6.91555 1.61501 6.06959" fill="#CCA279"/>
<path d="M20.5737 5.69141C18.5742 5.69141 16.9414 7.31825 16.9414 9.32369V21.4215C16.9414 23.421 18.5682 25.0538 20.5737 25.0538C22.5791 25.0538 24.2001 23.4269 24.2001 21.4215V20.2146H22.5851V21.4215C22.5851 22.5336 21.6799 23.4387 20.5678 23.4387C19.4556 23.4387 18.5505 22.5336 18.5505 21.4215V21.0192C18.5505 18.9723 19.7277 17.9607 21.0884 16.7953C22.5436 15.5471 24.1942 14.1332 24.1942 11.3469V9.32961C24.1942 7.33008 22.5673 5.69732 20.5678 5.69732M22.591 11.3351C22.591 13.3819 21.4137 14.3935 20.0472 15.5648C19.5503 15.9908 19.0238 16.4404 18.5564 16.955V9.32369C18.5564 8.21153 19.4615 7.30641 20.5737 7.30641C21.6859 7.30641 22.591 8.21153 22.591 9.32369V11.341V11.3351Z" fill="#CCA279"/>
<path d="M41.5534 0.0473633C39.5539 0.0473633 37.9211 1.6742 37.9211 3.67374V4.88055H39.5361V3.67374C39.5361 2.56157 40.4412 1.65646 41.5534 1.65646C42.6656 1.65646 43.5707 2.56157 43.5707 3.67374V4.07601C43.5707 6.12287 42.3934 7.13447 41.0269 8.29987C39.5716 9.5481 37.9211 10.962 37.9211 13.7483V18.9897C37.9211 19.1257 37.9329 19.2618 37.9448 19.392H37.9152C37.9152 21.4388 36.738 22.4504 35.3714 23.6158C34.8745 24.0418 34.348 24.4914 33.8806 25.0119V0.0473633H32.2656V29.082H33.8806C33.8806 27.0351 35.0579 26.0235 36.4244 24.8581C37.4242 24.0004 38.5127 23.0716 39.0984 21.6695C39.7432 22.267 40.6069 22.6338 41.5534 22.6338C43.5529 22.6338 45.1798 21.007 45.1798 19.0015V3.67374C45.1798 1.6742 43.5529 0.0473633 41.5534 0.0473633ZM43.5707 18.9956C43.5707 20.1078 42.6656 21.0129 41.5534 21.0129C40.4412 21.0129 39.5361 20.1078 39.5361 18.9956V13.7542C39.5361 11.7074 40.7134 10.6958 42.074 9.53036C42.5709 9.10442 43.0974 8.65482 43.5648 8.14015V18.9956H43.5707Z" fill="#CCA279"/>
</svg>
